<?xml version="1.0" standalone="no"?>
<!DOCTYPE svg PUBLIC "-//W3C//DTD SVG 20010904//EN"
 "http://www.w3.org/TR/2001/REC-SVG-20010904/DTD/svg10.dtd">
<svg version="1.0" xmlns="http://www.w3.org/2000/svg"
 width="700.000000pt" height="700.000000pt" viewBox="0 0 700.000000 700.000000"
 preserveAspectRatio="xMidYMid meet">
<metadata>
Created by potrace 1.14, written by Peter Selinger 2001-2017
</metadata>
<g transform="translate(0.000000,700.000000) scale(0.100000,-0.100000)"
fill="#000000" stroke="none">
<path d="M5740 4928 c0 -185 -37 -491 -93 -763 l-22 -110 -82 -16 c-239 -46
-405 -161 -483 -334 -15 -33 -44 -118 -64 -189 -47 -163 -73 -220 -187 -408
-51 -84 -118 -209 -149 -278 -165 -366 -405 -775 -616 -1051 -41 -53 -74 -99
-74 -103 0 -8 1049 -8 1167 0 l90 7 54 73 c29 40 55 78 57 83 2 6 -46 35 -106
65 -60 30 -150 78 -198 107 -109 64 -377 243 -393 263 -32 38 399 -209 593
-340 59 -41 111 -74 115 -73 3 0 45 53 93 117 48 64 126 164 174 222 124 152
196 264 281 440 41 85 135 277 209 425 113 227 137 283 151 354 14 70 15 94 5
153 -14 79 -68 205 -112 260 -17 20 -30 41 -30 46 0 4 15 26 34 48 121 141
447 604 540 765 l26 46 -227 75 c-155 50 -230 71 -235 63 -4 -6 -44 -103 -89
-215 -45 -113 -99 -241 -121 -285 -40 -80 -143 -245 -153 -245 -3 0 11 28 31
63 68 120 107 214 184 447 43 129 81 242 85 251 5 14 -29 26 -212 78 -120 33
-224 61 -230 61 -10 0 -13 -27 -13 -102z m-748 -1788 c121 -43 452 -190 444
-197 -6 -6 -258 89 -376 142 -104 46 -199 94 -188 95 4 0 58 -18 120 -40z"/>
<path d="M3332 4886 c-155 -38 -335 -181 -452 -360 -33 -50 -66 -100 -74 -112
-8 -11 -34 -26 -58 -33 -62 -19 -173 -77 -244 -127 -129 -91 -191 -192 -218
-353 -20 -119 -20 -227 0 -311 10 -44 11 -66 4 -68 -6 -2 -37 -24 -70 -48 -67
-51 -118 -116 -156 -199 -107 -233 6 -577 237 -725 36 -24 48 -37 44 -50 -18
-55 -35 -164 -35 -221 -1 -258 141 -448 360 -482 l66 -11 -17 -35 c-10 -20
-20 -46 -24 -58 l-6 -23 245 0 246 0 4 23 c3 12 19 211 37 442 23 303 29 420
21 423 -98 32 -425 223 -409 238 3 3 97 -31 210 -76 113 -44 209 -80 214 -80
5 0 26 208 46 463 21 254 40 473 43 487 3 21 -3 29 -36 48 -52 30 -216 167
-224 188 -6 17 -8 17 179 -90 85 -49 95 -53 95 -33 0 69 68 575 80 596 16 29
23 -126 17 -376 l-6 -252 52 18 c28 10 94 35 145 56 51 21 95 35 99 32 13 -13
-207 -142 -289 -170 -13 -5 -18 -17 -18 -41 0 -19 -11 -212 -25 -428 -13 -216
-26 -419 -28 -450 -4 -72 -17 -71 228 -18 102 22 195 40 207 39 55 -2 -245
-121 -399 -159 -52 -13 -48 13 -68 -390 -8 -173 -18 -354 -21 -402 l-7 -88
246 0 c215 0 246 2 241 15 -5 12 5 15 55 15 l61 0 61 78 c61 76 200 279 274
400 36 58 37 65 32 120 l-6 58 57 25 57 25 100 200 c55 109 122 248 150 308
l49 109 -23 66 c-29 86 -77 157 -144 216 l-54 48 23 56 c30 74 44 164 44 286
0 184 -38 274 -175 410 -63 63 -117 106 -182 143 -68 40 -93 60 -98 79 -11 46
-72 166 -126 248 -162 249 -404 367 -637 311z"/>
<path d="M1247 3359 c-15 -9 -18 -18 -12 -47 6 -34 65 -236 80 -274 5 -12 -15
-3 -57 25 -100 67 -158 82 -323 82 l-140 0 -95 -47 c-95 -46 -220 -147 -271
-219 -21 -29 -21 -31 -3 -51 38 -41 136 -110 211 -148 62 -30 197 -70 239 -70
4 0 -20 -28 -53 -63 -104 -108 -182 -244 -224 -392 -30 -103 -35 -294 -12
-405 l18 -85 1018 -3 1017 -2 10 25 c26 69 26 71 -32 83 -187 42 -321 217
-343 449 -6 60 -3 103 20 253 5 33 2 37 -46 70 -97 66 -181 184 -228 317 -23
66 -31 78 -56 86 -17 6 -104 10 -195 9 -129 0 -183 -4 -250 -20 -47 -11 -86
-19 -87 -18 -7 6 -45 211 -57 308 -10 74 -20 116 -32 129 -19 21 -68 25 -97 8z"/>
</g>
</svg>
